<?xml version="1.0" standalone="no"?>
<!DOCTYPE svg PUBLIC "-//W3C//DTD SVG 20010904//EN"
 "http://www.w3.org/TR/2001/REC-SVG-20010904/DTD/svg10.dtd">
<svg version="1.0" xmlns="http://www.w3.org/2000/svg"
 width="20.000000pt" height="22.000000pt" viewBox="0 0 20.000000 22.000000"
 preserveAspectRatio="xMidYMid meet">

<g transform="translate(0.000000,22.000000) scale(0.100000,-0.100000)"
fill="#000000" stroke="none">
<path d="M0 116 c0 -121 -4 -116 106 -116 l74 0 0 82 c0 75 -2 84 -27 110 -24
25 -34 28 -90 28 l-63 0 0 -104z m110 84 c0 -5 -11 -10 -24 -10 -24 0 -56 -23
-56 -41 0 -5 9 -9 20 -9 11 0 20 5 20 10 0 6 7 10 15 10 22 0 18 -23 -5 -38
-23 -14 -27 -42 -5 -42 19 0 65 40 65 57 0 7 7 13 15 13 13 0 15 -12 13 -67
l-3 -68 -75 0 -75 0 -3 98 -3 97 51 0 c27 0 50 -4 50 -10z m35 -10 c18 -19 17
-20 -3 -20 -15 0 -22 6 -22 20 0 11 2 20 3 20 2 0 12 -9 22 -20z"/>
<path d="M60 55 c0 -8 9 -15 20 -15 11 0 20 7 20 15 0 8 -9 15 -20 15 -11 0
-20 -7 -20 -15z"/>
</g>
</svg>
